<?xml version="1.0" encoding="utf-8"?>
<!DOCTYPE svg PUBLIC "-//W3C//DTD SVG 1.0//EN" "http://www.w3.org/TR/2001/REC-SVG-20010904/DTD/svg10.dtd">
<svg version="1.0" xmlns="http://www.w3.org/2000/svg" width="500mm" height="200mm" viewBox="0 0 500 200" preserveAspectRatio="xMidYMid meet">
 <g fill="#000000">
  <path d="M153.753 155.203 c-0.550 -0.333 -1.200 -1.117 -2.050 -2.467 l-0.550 -0.883 -0.983 0 -0.983 0 0 1.434 c0 0.783 -0.083 1.567 -0.167 1.750 -0.233 0.417 -1.250 0.450 -1.467 0.033 -0.217 -0.400 -0.400 -7.884 -0.250 -9.051 l0.133 -0.917 1.834 -0.050 c2.184 -0.067 4.284 0.183 4.967 0.583 0.933 0.550 1.167 1.067 1.250 2.700 l0.067 1.500 -0.850 0.900 -0.850 0.900 0.733 1 c0.967 1.334 1.100 1.600 1.100 2.284 0 0.600 0 0.600 -0.700 0.600 -0.400 0 -0.933 -0.133 -1.233 -0.317z m-1.150 -5.784 c0.667 -0.433 0.817 -0.850 0.500 -1.350 -0.367 -0.533 -1.117 -0.850 -2.450 -0.983 l-1.083 -0.100 -0.100 0.633 c-0.067 0.367 -0.117 0.967 -0.117 1.350 0 0.583 0.067 0.700 0.383 0.783 0.700 0.150 2.434 -0.050 2.867 -0.333z"/>
  <path d="M156.186 154.686 c0 -0.883 0.633 -2.467 2.867 -7.168 1.150 -2.434 1.467 -2.834 2.250 -2.834 l0.567 0 1.334 2.784 c2.417 5.034 3.017 6.484 2.950 7.168 -0.050 0.567 -0.100 0.633 -0.533 0.683 -0.867 0.100 -1.233 -0.100 -1.784 -1.033 -0.300 -0.500 -0.700 -0.950 -0.883 -1 -0.200 -0.050 -1.150 -0.100 -2.117 -0.100 l-1.750 0 -0.300 0.600 c-0.150 0.333 -0.467 0.867 -0.717 1.167 -0.367 0.500 -0.517 0.567 -1.150 0.567 l-0.733 0 0 -0.833z m5.567 -4.951 c-0.317 -0.700 -0.600 -1.300 -0.633 -1.334 -0.033 -0.033 -0.533 1.117 -1.050 2.417 -0.067 0.150 0.217 0.200 1.100 0.200 l1.167 0 -0.583 -1.283z"/>
  <path d="M204.359 154.669 c0 -0.600 0.200 -1.317 0.683 -2.534 1 -2.450 3.050 -6.668 3.350 -6.918 0.167 -0.133 0.567 -0.200 1 -0.167 l0.717 0.050 0.950 1.834 c1.717 3.300 3.184 6.768 3.267 7.718 l0.067 0.867 -0.600 0 c-0.867 0 -1.167 -0.217 -1.800 -1.250 -0.633 -1.067 -0.883 -1.133 -3.384 -1.050 l-1.500 0.050 -0.417 0.783 c-0.650 1.200 -0.967 1.467 -1.700 1.467 l-0.633 0 0 -0.850z m6.001 -3.767 c0 -0.333 -1.083 -2.534 -1.183 -2.434 -0.067 0.083 -0.350 0.683 -0.633 1.350 l-0.500 1.200 1.150 0 c0.650 0 1.167 -0.050 1.167 -0.117z"/>
  <path d="M245.864 155.203 c-0.183 -0.350 -0.233 -8.484 -0.067 -9.551 l0.117 -0.633 0.967 0 c1.183 0 1.117 -0.067 2.900 3.500 l1.283 2.567 0.467 -0.983 c1 -2.184 1.667 -3.534 2.150 -4.284 0.500 -0.800 0.517 -0.800 1.417 -0.800 0.667 0 0.917 0.067 1 0.267 0.050 0.150 0.100 2.384 0.100 4.984 0 2.600 -0.050 4.834 -0.100 4.984 -0.133 0.333 -1.200 0.367 -1.634 0.050 -0.250 -0.183 -0.317 -0.583 -0.383 -2.600 l-0.100 -2.367 -1.100 2.134 -1.117 2.134 -0.667 0.050 c-0.850 0.067 -0.867 0.033 -2.167 -2.517 l-1.033 -2.017 -0.067 2.417 c-0.050 1.317 -0.133 2.534 -0.200 2.700 -0.200 0.417 -1.534 0.400 -1.767 -0.033z"/>
  <path d="M257.482 155.403 c-0.433 -0.433 0.133 -2.050 2.584 -7.284 1.484 -3.184 1.650 -3.434 2.384 -3.434 0.700 0 0.950 0.333 2.184 2.950 1.950 4.117 2.917 6.567 2.867 7.201 -0.050 0.583 -0.067 0.600 -0.783 0.650 -0.867 0.067 -1.150 -0.150 -1.867 -1.417 l-0.500 -0.883 -0.883 0 c-0.483 0 -1.334 -0.050 -1.900 -0.100 l-1 -0.117 -0.450 0.883 c-0.633 1.250 -1.100 1.667 -1.884 1.667 -0.350 0 -0.700 -0.050 -0.750 -0.117z m6.051 -4.484 c0 -0.050 -0.233 -0.667 -0.533 -1.367 l-0.533 -1.283 -0.533 1.167 c-0.300 0.650 -0.550 1.267 -0.550 1.384 -0.017 0.133 0.300 0.200 1.067 0.200 0.600 0 1.083 -0.050 1.083 -0.100z"/>
  <path d="M137.567 155.086 c-0.167 -0.400 -0.167 -8.618 0 -9.418 0.100 -0.483 0.233 -0.633 0.567 -0.733 0.650 -0.150 5.567 0.267 6.084 0.517 0.250 0.133 0.633 0.483 0.867 0.783 0.367 0.467 0.433 0.750 0.433 1.600 0 0.617 -0.100 1.233 -0.267 1.550 -0.250 0.483 -0.250 0.517 0.183 0.967 0.433 0.450 0.450 0.533 0.400 1.984 -0.067 1.367 -0.100 1.550 -0.500 1.950 -0.617 0.617 -1.950 0.883 -5.017 1.017 -2.484 0.100 -2.634 0.083 -2.750 -0.217z m5.867 -2.300 c0.400 -0.267 0.400 -0.300 0.167 -0.750 -0.317 -0.633 -1 -0.850 -2.684 -0.850 -1.567 0 -1.534 -0.050 -1.283 1.400 l0.100 0.650 1.650 -0.100 c1.100 -0.050 1.784 -0.167 2.050 -0.350z m-0.517 -4.034 c0.383 -0.367 0.333 -1 -0.100 -1.300 -0.267 -0.183 -0.767 -0.267 -1.667 -0.267 -1.267 0 -1.317 0.017 -1.484 0.450 -0.083 0.233 -0.117 0.650 -0.067 0.917 l0.117 0.467 1.467 0 c1.117 0 1.534 -0.067 1.734 -0.267z"/>
  <path d="M167.621 155.136 c-0.283 -0.200 -0.317 -0.650 -0.400 -5.084 l-0.083 -4.867 0.867 0 c0.817 0 0.933 0.050 1.734 0.817 0.483 0.450 1.584 1.734 2.450 2.834 l1.584 2 0.133 -2.534 c0.167 -3.450 0.117 -3.317 1.067 -3.250 0.767 0.050 0.783 0.067 0.933 0.717 0.167 0.767 0.050 8.851 -0.133 9.301 -0.083 0.200 -0.300 0.283 -0.717 0.283 -0.517 0 -0.733 -0.133 -1.534 -0.967 -0.500 -0.533 -1.634 -1.900 -2.500 -3.017 l-1.584 -2.050 -0.100 2.984 c-0.050 1.634 -0.100 2.984 -0.117 3.017 -0.117 0.133 -1.350 0 -1.600 -0.183z"/>
  <path d="M178.856 155.219 l-0.750 -0.117 0 -5.001 0 -4.984 0.750 -0.167 c1.183 -0.233 4.351 0.150 5.517 0.667 1.867 0.850 2.567 2.084 2.567 4.651 0 1.467 -0.050 1.784 -0.433 2.500 -0.500 1 -1.534 1.817 -2.700 2.167 -0.967 0.283 -3.800 0.450 -4.951 0.283z m2.934 -2.050 c0.533 -0.100 1.267 -0.350 1.600 -0.583 0.717 -0.450 1.334 -1.534 1.334 -2.300 -0.017 -1.634 -1.634 -3.117 -3.434 -3.167 -0.817 -0.017 -0.833 -0.017 -0.950 0.567 -0.267 1.167 -0.383 4.917 -0.167 5.301 0.217 0.417 0.283 0.433 1.617 0.183z"/>
  <path d="M217.627 155.186 c-0.783 -0.250 -1.917 -1.467 -2.167 -2.350 -0.150 -0.483 -0.283 -2.134 -0.367 -4.217 l-0.117 -3.434 1.200 0 1.183 0 0 2.884 c0.017 3.967 0.400 4.967 2.017 5.217 0.500 0.083 0.683 0.017 1.183 -0.417 0.883 -0.783 1.050 -1.584 1.017 -4.884 l-0.050 -2.800 1.183 0 1.183 0 -0.083 3.467 c-0.033 1.900 -0.167 3.717 -0.267 4.051 -0.250 0.833 -1.083 1.917 -1.667 2.234 -0.600 0.300 -3.550 0.483 -4.251 0.250z"/>
  <path d="M228.029 151.286 l0 -4.051 -1.534 -0.150 -1.550 -0.150 0 -0.833 0 -0.833 3.834 -0.050 c2.117 -0.017 4.001 0 4.217 0.050 0.317 0.083 0.367 0.200 0.367 0.833 0 0.700 -0.017 0.733 -0.617 0.900 -0.350 0.100 -1.033 0.183 -1.500 0.183 -0.483 0 -0.883 0.050 -0.883 0.133 -0.017 0.067 -0.083 1.784 -0.150 3.834 -0.100 2.467 -0.217 3.800 -0.350 3.950 -0.133 0.167 -0.517 0.250 -1.017 0.250 l-0.817 0 0 -4.067z"/>
  <path d="M237.396 155.186 c-1.500 -0.233 -2.750 -1.300 -3.284 -2.817 -0.367 -1.067 -0.333 -3.734 0.067 -4.617 0.450 -1 1.334 -1.900 2.267 -2.334 0.683 -0.333 1.117 -0.400 2.434 -0.400 1.450 0 1.684 0.050 2.617 0.517 1.100 0.533 1.817 1.317 2.367 2.500 0.450 1.017 0.467 3.434 0.017 4.417 -0.433 0.967 -1.467 2.067 -2.267 2.417 -0.800 0.350 -2.984 0.517 -4.217 0.317z m2.267 -2.100 c1.083 -0.450 1.967 -1.517 2.267 -2.784 0.150 -0.600 -0.350 -1.550 -1.233 -2.350 -1.150 -1.050 -2.167 -1.217 -3.167 -0.533 -0.717 0.483 -1.534 1.917 -1.534 2.684 0 1.133 0.900 2.384 2.117 2.934 0.817 0.383 0.783 0.383 1.550 0.050z"/>
  <path d="M270.667 154.986 c-0.150 -0.267 -0.233 -1.517 -0.300 -4.051 l-0.083 -3.650 -0.417 -0.117 c-0.233 -0.067 -0.717 -0.133 -1.083 -0.133 -1.300 -0.033 -1.434 -0.133 -1.384 -1 l0.050 -0.767 4.084 0 4.084 0 0.050 0.733 c0.033 0.400 -0.017 0.800 -0.100 0.883 -0.083 0.083 -0.783 0.200 -1.550 0.267 l-1.400 0.117 -0.083 3.834 c-0.050 2.117 -0.150 3.934 -0.217 4.051 -0.083 0.100 -0.433 0.200 -0.783 0.200 -0.500 0 -0.700 -0.083 -0.867 -0.367z"/>
  <path d="M276.868 151.069 c0 -2.367 0.050 -4.701 0.117 -5.201 l0.100 -0.900 3.517 0.117 c2.100 0.083 3.600 0.200 3.734 0.300 0.133 0.117 0.200 0.450 0.167 0.867 -0.067 0.867 -0.200 0.900 -3.250 0.917 l-2.384 0.017 0 0.883 0 0.900 2.400 0.100 c1.317 0.067 2.534 0.167 2.684 0.217 0.200 0.083 0.250 0.283 0.217 0.883 -0.050 0.700 -0.100 0.767 -0.550 0.867 -0.267 0.067 -1.450 0.117 -2.617 0.133 l-2.134 0.017 0 1 0 1 2.600 0 c1.467 0 2.734 0.067 2.917 0.167 0.250 0.133 0.317 0.350 0.317 0.983 0 0.700 -0.050 0.817 -0.367 0.917 -0.217 0.050 -1.984 0.100 -3.917 0.100 l-3.550 0 0 -4.284z"/>
  <path d="M302.038 150.569 c0 -2.650 0.050 -4.967 0.100 -5.167 0.083 -0.317 0.217 -0.383 0.783 -0.383 0.600 0 0.767 0.100 1.500 0.867 0.433 0.467 1.534 1.784 2.434 2.900 0.900 1.133 1.684 2 1.750 1.950 0.050 -0.067 0.100 -1.200 0.100 -2.534 0 -3.200 0 -3.217 0.983 -3.150 0.700 0.050 0.767 0.100 0.867 0.550 0.150 0.650 0.183 9.134 0.050 9.485 -0.067 0.183 -0.317 0.267 -0.767 0.267 -0.800 0 -0.950 -0.150 -3.684 -3.617 l-1.867 -2.384 -0.100 2.784 c-0.133 3.150 -0.150 3.217 -1.434 3.217 l-0.717 0 0 -4.784z"/>
  <path d="M315.039 155.169 c-0.917 -0.167 -1.900 -1.150 -2.200 -2.217 -0.117 -0.433 -0.200 -1.984 -0.200 -4.151 -0.017 -3.900 -0.050 -3.817 1.233 -3.750 l0.750 0.050 0.117 3.217 c0.150 3.800 0.267 4.201 1.367 4.734 1.250 0.600 2.250 0.050 2.600 -1.467 0.083 -0.350 0.167 -1.950 0.167 -3.517 l0 -2.884 1.083 0 1.083 0 0 3.550 c0 2.034 -0.083 3.817 -0.183 4.201 -0.233 0.850 -1.534 2.150 -2.317 2.300 -0.717 0.150 -2.567 0.117 -3.500 -0.067z"/>
  <path d="M323.090 155.153 c-0.067 -0.117 -0.167 -2.417 -0.183 -5.084 l-0.067 -4.884 3 0 c3.800 0 4.351 0.167 5.051 1.534 0.383 0.767 0.433 2.600 0.083 3.284 -0.133 0.250 -0.517 0.700 -0.867 1 l-0.600 0.533 0.850 1.283 c0.700 1.033 0.850 1.384 0.817 1.867 l-0.050 0.583 -0.867 0 c-1.033 -0.017 -1.217 -0.150 -2.584 -2.034 l-1 -1.384 -0.900 0 -0.900 0 0 1.484 c0 0.817 -0.050 1.600 -0.100 1.750 -0.133 0.333 -1.484 0.367 -1.684 0.067z m5.151 -5.717 c0.917 -0.617 0.967 -1.033 0.233 -1.700 -0.600 -0.550 -0.633 -0.567 -1.984 -0.517 l-1.367 0.050 -0.100 1 c-0.167 1.500 -0.133 1.534 1.600 1.567 0.817 0.017 1.117 -0.067 1.617 -0.400z"/>
  <path d="M335.109 155.169 c-0.167 -0.267 -0.383 -3.534 -0.383 -5.934 l-0.017 -2.050 -0.733 0 c-0.400 0 -1.067 -0.050 -1.500 -0.100 l-0.767 -0.117 0 -0.800 c0 -0.433 0.067 -0.833 0.150 -0.883 0.233 -0.150 6.901 -0.317 7.568 -0.200 0.617 0.117 0.617 0.117 0.617 0.917 0 0.950 -0.017 0.967 -1.717 1.117 l-1.250 0.117 -0.100 0.850 c-0.050 0.467 -0.100 2.100 -0.100 3.634 0 3.350 -0.083 3.634 -0.983 3.634 -0.367 0 -0.717 -0.083 -0.783 -0.183z"/>
  <path d="M343.560 155.186 c-1.050 -0.250 -1.917 -1.133 -2.200 -2.267 -0.100 -0.350 -0.217 -2.117 -0.267 -3.917 -0.100 -3.834 -0.067 -3.984 1.017 -3.984 0.517 0 0.767 0.083 0.833 0.267 0.067 0.150 0.183 1.634 0.283 3.300 0.200 3.734 0.283 4.034 1.267 4.467 0.717 0.317 0.783 0.317 1.467 0.067 1.233 -0.483 1.250 -0.500 1.350 -4.034 0.050 -1.734 0.117 -3.317 0.167 -3.517 0.067 -0.350 0.167 -0.383 0.983 -0.383 l0.900 0 0.133 0.633 c0.250 1.183 0.133 6.034 -0.167 7.034 -0.333 1.133 -1.283 2.117 -2.217 2.350 -0.783 0.167 -2.767 0.167 -3.550 -0.017z"/>
  <path d="M351.527 155.086 c-0.267 -0.317 -0.400 -5.667 -0.200 -8.234 l0.133 -1.750 2.334 0 c3.250 0.017 4.134 0.150 4.834 0.783 0.583 0.500 1.083 1.717 1.083 2.617 0 0.933 -0.383 1.767 -1.083 2.467 l-0.733 0.683 0.833 1.167 c0.617 0.883 0.817 1.317 0.817 1.767 l0 0.600 -0.983 0 c-0.967 0 -1.017 -0.017 -1.567 -0.700 -0.317 -0.400 -0.850 -1.150 -1.200 -1.667 l-0.633 -0.967 -0.867 0 -0.867 0 -0.100 1.584 c-0.050 0.867 -0.133 1.650 -0.200 1.750 -0.167 0.267 -1.350 0.200 -1.600 -0.100z m5.384 -5.884 c0.600 -0.667 0.583 -0.867 -0.050 -1.517 -0.517 -0.500 -0.550 -0.517 -1.967 -0.467 l-1.434 0.050 -0.050 1.200 -0.050 1.200 0.550 0.067 c0.300 0.050 1 0.050 1.550 0.033 0.867 -0.050 1.050 -0.117 1.450 -0.567z"/>
  <path d="M360.978 154.336 c-0.133 -1.317 -0.133 -8.701 0 -9.051 0.083 -0.233 0.467 -0.267 2.717 -0.250 1.434 0.017 3.167 0.067 3.850 0.133 l1.250 0.100 0.050 0.583 c0.017 0.317 -0.033 0.700 -0.117 0.833 -0.183 0.283 -1.834 0.467 -4.134 0.483 l-1.550 0.017 0 0.900 0 0.900 1.967 0.117 c1.067 0.050 2.217 0.150 2.534 0.217 0.550 0.117 0.583 0.167 0.633 0.883 0.050 0.750 0.033 0.783 -0.483 0.883 -0.283 0.050 -1.450 0.100 -2.584 0.100 l-2.067 0 0 0.983 0 0.967 2.634 0.100 c1.434 0.033 2.750 0.133 2.917 0.200 0.233 0.100 0.283 0.283 0.250 0.883 -0.050 0.667 -0.117 0.783 -0.467 0.883 -0.233 0.067 -1.967 0.117 -3.850 0.133 l-3.434 0.017 -0.117 -1.017z"/>
  <path d="M194.858 154.086 c-0.100 -0.233 -0.167 -0.800 -0.167 -1.250 l0 -0.817 -1.133 0 c-1.450 0 -1.900 -0.283 -1.834 -1.133 0.067 -0.717 0.317 -0.817 1.917 -0.850 l1.033 -0.017 0.050 -1.200 0.050 -1.217 0.833 0 0.833 0 0.150 1.183 0.150 1.200 1.267 0.100 c0.683 0.067 1.350 0.200 1.467 0.300 0.117 0.100 0.217 0.450 0.217 0.800 0 0.700 -0.167 0.833 -1.133 0.833 -0.333 0 -0.900 0.050 -1.233 0.100 -0.633 0.117 -0.633 0.117 -0.633 0.883 0 1.350 -0.100 1.517 -0.933 1.517 -0.650 0 -0.767 -0.050 -0.900 -0.433z"/>
  <path d="M292.303 154.253 c-0.050 -0.150 -0.100 -0.700 -0.100 -1.233 l0 -0.983 -1.367 -0.050 -1.384 -0.050 0 -0.750 0 -0.750 1.117 -0.083 c0.617 -0.050 1.217 -0.167 1.317 -0.283 0.117 -0.117 0.250 -0.717 0.300 -1.334 l0.100 -1.133 0.717 -0.050 c0.633 -0.050 0.717 0 0.867 0.383 0.100 0.233 0.167 0.800 0.167 1.233 0 0.867 0.167 1 1.167 1.017 0.233 0 0.700 0.083 1.050 0.183 0.583 0.150 0.617 0.200 0.617 0.800 0 0.717 -0.167 0.850 -1.083 0.850 -0.300 0 -0.783 0.050 -1.067 0.100 -0.450 0.100 -0.517 0.183 -0.517 0.633 0 0.283 -0.050 0.800 -0.100 1.150 -0.117 0.617 -0.117 0.617 -0.900 0.617 -0.567 0 -0.833 -0.067 -0.900 -0.267z"/>
  <path d="M326.858 133.533 c-2.184 -0.450 -3.284 -2.567 -3.100 -5.934 0.250 -4.667 4.101 -15.119 10.551 -28.654 1.067 -2.200 1.967 -4.101 2.017 -4.217 0.050 -0.150 -0.083 -0.133 -0.433 0.050 -0.650 0.333 -1.550 0.467 -2.100 0.333 -0.400 -0.100 -0.433 -0.167 -0.383 -0.883 0.050 -0.750 0.100 -0.817 1.150 -1.634 0.617 -0.450 1.750 -1.283 2.550 -1.834 1.717 -1.183 1.617 -1.033 5.134 -7.834 6.934 -13.402 11.718 -21.053 15.319 -24.503 1.700 -1.634 2.584 -2.084 4.034 -2.084 0.800 0 1.267 0.100 1.917 0.433 1.233 0.617 1.534 1.067 1.534 2.267 0 2.317 -0.950 5.217 -2.834 8.668 -3.134 5.734 -7.218 11.018 -14.402 18.702 -2.434 2.600 -3.267 3.617 -3.934 4.767 -0.800 1.400 -2 3.850 -2 4.084 0 0.150 3.417 -0.050 4.917 -0.283 2.817 -0.433 6.651 -2.350 9.535 -4.767 1.183 -1 1.900 -2.284 3.467 -6.117 5.617 -13.818 13.618 -26.787 17.786 -28.820 1.884 -0.917 4.234 -0.700 5.284 0.483 0.283 0.333 0.567 0.783 0.617 1.017 0.200 0.783 -0.050 2.800 -0.517 4.151 -1.450 4.167 -5.734 11.668 -9.885 17.252 -1.934 2.617 -6.434 8.184 -8.334 10.301 -1.734 1.950 -1.984 2.367 -2.900 4.951 -1.834 5.101 -3.167 10.568 -3.200 13.085 -0.017 1.367 0.333 2.334 0.867 2.334 1.534 -0.017 6.951 -5.534 11.985 -12.252 1.617 -2.150 2.567 -3.550 6.134 -9.001 1.684 -2.567 4.017 -4.951 5.584 -5.734 1.033 -0.517 1.183 -0.533 2.917 -0.517 1.017 0 2.517 -0.033 3.334 -0.083 1.250 -0.083 1.600 -0.050 2.084 0.200 1.300 0.683 1.900 2.350 1.884 5.301 -0.017 2.117 -0.533 5.217 -1.217 7.151 -0.183 0.550 -0.300 1.017 -0.250 1.067 0.150 0.167 2.667 -0.650 3.817 -1.233 0.650 -0.317 1.784 -1.117 2.534 -1.750 1.917 -1.617 6.217 -6.101 7.818 -8.118 1.767 -2.217 1.950 -2.317 4.001 -2.084 0.883 0.117 1.717 0.283 1.850 0.400 0.533 0.450 0.250 1.233 -2.084 5.834 -2.550 5.034 -4.051 8.401 -5.017 11.318 -0.717 2.117 -0.950 3.167 -0.717 3.167 0.200 0 2.500 -2.334 3.517 -3.584 1.267 -1.550 2.700 -3.584 6.317 -9.001 4.684 -6.984 4.217 -6.417 5.251 -6.417 0.467 0 1.300 0.117 1.834 0.267 l0.967 0.283 0 0.900 c0 0.667 -0.317 1.884 -1.267 4.767 -1.500 4.584 -2.467 8.334 -2.834 10.901 -0.283 1.900 -0.233 2.750 0.167 3.300 0.217 0.300 0.283 0.250 1.267 -0.683 1.834 -1.734 4.134 -5.051 6.417 -9.284 l0.783 -1.467 -0.367 -1.367 c-0.333 -1.183 -0.367 -1.634 -0.283 -3.367 0.150 -3.134 0.950 -5.434 2.317 -6.684 0.600 -0.533 0.700 -0.567 1.817 -0.567 1.117 0 1.217 0.033 1.750 0.567 0.567 0.567 0.567 0.583 0.567 2.067 0 2.034 -0.700 4.667 -2.250 8.401 -0.150 0.367 0.450 0.750 1.484 0.950 0.750 0.133 0.900 0.100 2.117 -0.517 1.033 -0.517 1.750 -1.067 3.167 -2.400 l1.817 -1.750 0.800 0.050 0.783 0.050 0.050 0.800 c0.067 1.100 -0.433 1.900 -2.200 3.567 -1.534 1.434 -2.650 2.134 -4.001 2.484 -1.133 0.300 -3.984 0.283 -4.851 -0.017 -0.367 -0.133 -0.683 -0.250 -0.700 -0.250 -0.017 0 -0.583 1.067 -1.250 2.367 -1.700 3.334 -3.584 6.101 -5.284 7.818 -1.917 1.917 -2.550 2.200 -4.684 2.117 -1.450 -0.050 -1.667 -0.100 -2.217 -0.517 -0.783 -0.583 -1.517 -2.167 -1.784 -3.784 -0.233 -1.384 -0.133 -3.484 0.250 -5.701 0.133 -0.750 0.217 -1.384 0.183 -1.417 -0.017 -0.017 -0.500 0.633 -1.067 1.450 -2.434 3.517 -5.567 7.051 -7.084 8.034 -0.800 0.517 -0.950 0.550 -2.300 0.550 -1.300 0 -1.484 -0.033 -2.034 -0.467 -1.384 -1.050 -1.800 -2.617 -1.467 -5.417 0.183 -1.517 0.933 -4.234 1.667 -6.017 l0.367 -0.917 -0.717 0.667 c-2.667 2.467 -5.734 3.850 -9.134 4.167 l-1.167 0.117 -0.600 1.083 c-2.134 3.817 -4.651 6.734 -6.668 7.718 -1.050 0.517 -1.283 0.567 -3 0.633 -1.600 0.050 -1.967 0 -2.634 -0.283 -1.183 -0.533 -2.467 -1.850 -3.200 -3.317 -0.617 -1.217 -0.650 -1.334 -0.733 -3.317 l-0.083 -2.067 -1.417 1.867 c-2.617 3.467 -6.334 7.651 -8.401 9.435 -0.567 0.483 -1.584 1.150 -2.250 1.500 -1.183 0.583 -1.334 0.617 -2.867 0.617 -1.534 0 -1.667 -0.033 -2.350 -0.500 -0.817 -0.583 -1.684 -1.917 -2.100 -3.250 -0.217 -0.700 -0.283 -1.500 -0.267 -3.417 0.017 -2.750 0.267 -4.501 1.150 -8.001 0.300 -1.183 0.517 -2.200 0.483 -2.234 -0.017 -0.033 -0.250 0.100 -0.517 0.283 -0.717 0.500 -2.800 1.517 -4.417 2.134 -2.484 0.967 -3.950 1.250 -6.884 1.367 l-2.667 0.117 -0.100 3.917 c-0.133 4.667 -0.500 7.384 -1.584 11.685 -2.384 9.535 -6.651 18.052 -9.818 19.636 -0.817 0.417 -2.150 0.567 -3.100 0.367z m2.450 -3.717 c1.017 -1.067 1.600 -1.884 2.600 -3.634 3.467 -6.084 6.151 -15.269 7.051 -24.086 l0.100 -1 -0.933 2 c-3.784 8.101 -7.084 16.285 -8.684 21.553 -0.817 2.734 -1.334 5.867 -0.933 5.867 0.067 0 0.433 -0.317 0.800 -0.700z m52.173 -25.553 c1.717 -0.717 3.834 -3.050 5.651 -6.217 l0.783 -1.367 -0.783 -0.867 c-1.617 -1.800 -2.084 -3.317 -2.084 -6.801 l-0.017 -2.417 -0.583 0.667 c-1.350 1.517 -2.800 4.084 -4.201 7.451 -1.217 2.917 -1.800 6.217 -1.384 7.768 0.233 0.833 1.233 2.034 1.700 2.034 0.183 0 0.600 -0.117 0.917 -0.250z m8.468 -13.252 c0.633 -2.550 0.917 -4.717 0.733 -5.534 -0.167 -0.767 -0.433 -1.334 -0.700 -1.500 -0.467 -0.300 -1.434 1.334 -1.950 3.334 -0.633 2.384 -0.400 4.167 0.717 5.734 l0.350 0.500 0.200 -0.383 c0.117 -0.217 0.417 -1.183 0.650 -2.150z m-21.603 -11.285 c5.167 -6.651 9.701 -13.985 11.585 -18.802 0.317 -0.817 0.633 -1.717 0.700 -2 l0.100 -0.500 -0.600 0.583 c-3.100 2.934 -8.201 11.385 -12.768 21.136 -0.433 0.933 -0.767 1.700 -0.733 1.700 0.033 0 0.800 -0.950 1.717 -2.117z m-16.985 -1.367 c5.234 -6.251 9.501 -13.285 10.801 -17.852 0.200 -0.683 -2.850 3.184 -4.734 6.001 -0.933 1.417 -7.401 12.535 -8.218 14.168 -0.217 0.433 0.283 -0.117 2.150 -2.317z"/>
  <path d="M297.371 103.030 l0 -5.151 -5.001 -0.117 c-3.284 -0.083 -5.084 -0.183 -5.251 -0.317 -0.217 -0.150 -0.283 -0.717 -0.367 -2.817 l-0.100 -2.617 5.351 0 5.367 0 0 -5.251 0 -5.251 2.834 0 2.834 0 0 5.234 0 5.234 5.251 0.117 5.251 0.117 0 2.634 0 2.617 -3.284 0.117 c-1.817 0.050 -4.184 0.150 -5.251 0.200 l-1.967 0.117 0 2.617 c0 1.434 -0.050 3.750 -0.117 5.134 l-0.100 2.534 -2.734 0 -2.717 0 0 -5.151z"/>
  <path d="M63.125 105.863 c-0.917 -0.067 -1.517 -0.183 -1.600 -0.317 -0.183 -0.300 -0.350 -7.968 -0.350 -15.985 l0 -6.718 1.717 0 c4.851 0.017 12.068 0.333 12.902 0.583 1.067 0.317 2.400 1.484 3.017 2.650 0.417 0.783 0.450 1 0.450 2.850 0 1.934 -0.017 2.050 -0.550 3.117 -0.300 0.617 -0.750 1.283 -1 1.467 -0.433 0.350 -0.433 0.367 -0.117 0.550 0.817 0.450 1.900 1.684 2.350 2.667 0.417 0.917 0.467 1.217 0.467 2.784 0 1.534 -0.050 1.867 -0.433 2.684 -1.150 2.500 -3.017 3.367 -7.918 3.650 -2.867 0.167 -6.617 0.167 -8.934 0.017z m10.935 -4.051 c1.217 -0.267 2.300 -1.517 2.334 -2.717 0 -0.300 -0.183 -0.867 -0.433 -1.283 -0.800 -1.367 -2.017 -1.667 -7.118 -1.700 l-3.417 -0.017 -0.050 3.067 -0.033 3.050 3.950 -0.117 c2.184 -0.050 4.334 -0.183 4.767 -0.283z m-3.617 -9.618 c3.134 -0.133 3.650 -0.300 4.417 -1.367 0.633 -0.883 0.717 -1.567 0.317 -2.400 -0.633 -1.300 -1.100 -1.467 -4.584 -1.650 -1.650 -0.083 -3.500 -0.100 -4.117 -0.033 l-1.133 0.133 0 2.734 0 2.734 1.133 -0.017 c0.617 0 2.400 -0.067 3.967 -0.133z"/>
  <path d="M107.713 105.863 c-1.233 -0.083 -1.434 -0.150 -1.734 -0.517 -0.533 -0.633 -3.300 -4.567 -4.401 -6.234 l-0.983 -1.484 -1.334 0.117 c-0.733 0.050 -1.834 0.100 -2.434 0.100 l-1.100 0 -0.117 3.867 c-0.067 2.134 -0.167 3.934 -0.200 4.001 -0.100 0.167 -2.650 0.183 -3.384 0.033 l-0.517 -0.100 0 -11.435 0 -11.418 6.317 0.100 c3.467 0.067 6.718 0.200 7.201 0.283 2.517 0.483 4.684 2.517 5.251 4.984 0.650 2.767 -0.100 5.717 -1.867 7.351 -0.717 0.667 -2.200 1.500 -2.634 1.500 -0.133 0 -0.283 0.067 -0.333 0.133 -0.050 0.083 0.633 1.117 1.500 2.300 3.134 4.234 3.734 5.151 3.734 5.784 0 0.833 0 0.833 -2.967 0.633z m-4.967 -12.102 c1.634 -0.300 2.384 -0.783 2.984 -1.900 0.800 -1.450 0.483 -3.217 -0.733 -4.267 -0.750 -0.617 -1.384 -0.717 -5.517 -0.833 l-3.800 -0.117 0 3.800 0 3.784 2.884 -0.100 c1.567 -0.067 3.467 -0.217 4.184 -0.367z"/>
  <path d="M119.632 105.897 c-0.333 -0.333 0.067 -1.517 1.950 -5.701 1.133 -2.534 3.284 -7.368 4.784 -10.735 1.834 -4.167 2.817 -6.201 3.050 -6.334 0.200 -0.100 1.150 -0.183 2.167 -0.183 l1.834 -0.017 0.800 1.750 c1.434 3.150 5.567 12.502 7.201 16.319 1.233 2.850 1.600 3.884 1.567 4.334 l-0.050 0.600 -1.250 0.050 c-1.784 0.067 -2.500 -0.117 -2.934 -0.750 -0.183 -0.283 -0.717 -1.434 -1.167 -2.534 l-0.817 -2.017 -1.767 0 c-0.967 0 -3.450 0.050 -5.534 0.117 l-3.767 0.100 -1.017 2.450 -1.033 2.450 -1.250 0.117 c-1.634 0.133 -2.634 0.133 -2.767 -0.017z m15.335 -9.084 c-0.050 -0.117 -0.583 -1.384 -1.200 -2.800 -0.617 -1.417 -1.417 -3.317 -1.784 -4.217 l-0.683 -1.650 -0.417 0.983 c-0.550 1.317 -2.017 4.651 -2.850 6.434 l-0.667 1.450 3.850 0 c3 0 3.817 -0.050 3.750 -0.200z"/>
  <path d="M153.136 104.396 c-0.067 -0.900 -0.167 -6.117 -0.233 -11.585 l-0.100 -9.968 1.500 0 c0.817 0 1.734 0.083 2.034 0.183 0.567 0.200 1.850 1.750 8.601 10.451 l3.667 4.701 0.100 -3.700 c0.067 -2.050 0.117 -5.517 0.133 -7.701 l0.017 -3.984 1.867 0.100 c1.200 0.067 1.917 0.183 2.017 0.317 0.217 0.317 0.017 22.136 -0.217 22.369 -0.100 0.100 -0.767 0.200 -1.484 0.233 -1.200 0.067 -1.317 0.033 -1.834 -0.400 -0.600 -0.500 -3.217 -3.750 -8.684 -10.785 l-3.584 -4.617 -0.050 8.001 -0.033 8.001 -1.817 0 -1.800 0 -0.100 -1.617z"/>
  <path d="M186.023 105.880 c-0.417 -0.133 -0.417 -0.133 -0.517 -2.867 -0.050 -1.517 -0.117 -6.601 -0.133 -11.301 l-0.017 -8.534 0.433 -0.167 c0.883 -0.350 10.468 -0.017 12.168 0.417 1.684 0.433 3.334 1.350 4.634 2.584 1.984 1.900 2.950 3.917 3.300 6.834 0.367 3.084 -0.283 6.067 -1.767 8.318 -0.950 1.434 -1.950 2.317 -3.600 3.167 -1.600 0.833 -2.667 1.133 -4.834 1.350 -2.250 0.217 -9.118 0.367 -9.668 0.200z m10.085 -4.184 c1.300 -0.383 2.867 -1.250 3.734 -2.067 0.750 -0.717 1.617 -2.534 1.867 -3.984 0.533 -2.984 -1.067 -6.401 -3.634 -7.751 -1.450 -0.767 -3.234 -1.100 -6.001 -1.117 -1.300 -0.017 -2.417 0.050 -2.500 0.117 -0.067 0.083 -0.150 3.567 -0.183 7.734 l-0.067 7.601 2.817 -0.083 c2.167 -0.067 3.067 -0.167 3.967 -0.450z"/>
  <path d="M217.461 99.229 c-0.050 -3.750 -0.150 -8.951 -0.200 -11.585 l-0.117 -4.801 8.868 0 8.851 0 0 1.900 0 1.900 -3.284 0.133 c-1.817 0.067 -4.851 0.133 -6.751 0.133 l-3.467 0.017 0 2.717 0 2.700 6.084 0 6.084 0 0 1.734 0 1.717 -3.367 0.117 c-1.867 0.050 -4.601 0.150 -6.084 0.200 l-2.717 0.117 0 2.900 0 2.884 5.884 -0.033 c3.217 -0.033 6.267 0.017 6.751 0.083 l0.867 0.150 0 1.784 0 1.800 -6.034 0.100 c-3.317 0.067 -7.201 0.117 -8.634 0.117 l-2.617 0 -0.117 -6.784z"/>
  <path d="M246.147 104.396 c-0.067 -0.900 -0.117 -6.034 -0.117 -11.418 0 -7.651 0.050 -9.818 0.217 -9.918 0.333 -0.217 5.801 -0.267 8.701 -0.067 3.017 0.183 4.134 0.433 5.917 1.300 2.384 1.167 4.734 4.034 5.417 6.634 0.350 1.350 0.350 5.484 0 6.834 -0.983 3.767 -3.884 6.567 -7.834 7.584 -1.183 0.300 -7.001 0.667 -10.685 0.667 l-1.517 0 -0.100 -1.617z m10.468 -2.650 c2.317 -0.617 4.151 -2.117 5.134 -4.184 0.500 -1.083 0.533 -1.233 0.533 -3.134 0 -1.950 -0.017 -2.050 -0.567 -3.167 -0.700 -1.434 -2.267 -3.017 -3.567 -3.634 -1.133 -0.550 -3.317 -0.817 -5.951 -0.750 l-1.917 0.050 -0.050 7.651 -0.033 7.651 2.700 -0.100 c1.650 -0.067 3.117 -0.217 3.717 -0.383z"/>
 </g>
 <g fill="#ffffff">
  <path d="M0 100.012 l0 -100.012 250.031 0 250.031 0 0 100.012 0 100.012 -250.031 0 -250.031 0 0 -100.012z m155.186 54.857 c0 -0.067 -0.200 -0.433 -0.450 -0.783 -1.317 -1.917 -1.550 -2.284 -1.550 -2.534 0 -0.133 0.417 -0.700 0.933 -1.233 l0.950 -0.983 -0.100 -1.017 c-0.150 -1.717 -0.900 -2.350 -3.050 -2.650 -0.717 -0.083 -1.917 -0.150 -2.650 -0.117 l-1.334 0.050 -0.117 0.833 c-0.167 1.150 0.033 7.768 0.250 8.151 0.150 0.317 0.167 0.317 0.383 0.017 0.150 -0.217 0.233 -0.800 0.233 -1.784 l0 -1.467 1.484 0 1.484 0 0.550 0.883 c0.850 1.350 1.500 2.134 2.050 2.467 0.550 0.333 0.933 0.400 0.933 0.167z m2.384 -0.417 c0.250 -0.300 0.567 -0.833 0.717 -1.167 l0.300 -0.600 2.250 0 c1.250 0 2.417 0.050 2.617 0.100 0.183 0.050 0.567 0.467 0.833 0.933 0.533 0.900 1 1.267 1.267 1 0.183 -0.183 -0.617 -2.100 -2.867 -6.784 l-1.334 -2.800 -0.367 0.317 c-0.567 0.500 -4.301 8.518 -4.301 9.234 0 0.500 0.417 0.400 0.883 -0.233z m47.889 0.217 c0.167 -0.183 0.500 -0.700 0.733 -1.117 l0.417 -0.783 2 -0.050 c3.067 -0.083 3.234 -0.033 3.884 1.050 0.533 0.867 1.117 1.400 1.334 1.183 0.250 -0.267 -3.917 -9.201 -4.384 -9.368 -0.133 -0.067 -0.383 0 -0.533 0.117 -0.550 0.467 -4.051 8.201 -4.051 8.968 0 0.450 0.200 0.450 0.600 0z m41.672 0.067 c0.067 -0.167 0.167 -1.800 0.217 -3.634 l0.100 -3.334 1.434 2.834 c1.600 3.150 2.017 3.767 2.317 3.484 0.117 -0.117 0.900 -1.567 1.767 -3.250 l1.550 -3.067 0.017 2.434 c0 3.367 0.133 4.451 0.550 4.667 0.250 0.133 0.367 0.133 0.467 -0.033 0.167 -0.267 0.200 -8.651 0.050 -9.051 -0.050 -0.150 -0.283 -0.267 -0.500 -0.267 -0.300 0 -0.533 0.200 -0.917 0.800 -0.533 0.833 -1.584 2.934 -2.334 4.701 -0.250 0.600 -0.567 1.100 -0.700 1.133 -0.183 0.033 -0.700 -0.833 -1.700 -2.834 -1.800 -3.550 -1.967 -3.800 -2.567 -3.800 -0.417 0 -0.483 0.083 -0.583 0.633 -0.167 1.067 -0.117 8.201 0.067 8.551 0.217 0.400 0.583 0.417 0.767 0.033z m11.651 -0.117 c0.217 -0.217 0.583 -0.783 0.833 -1.267 l0.433 -0.867 2.367 0.117 c1.817 0.083 2.400 0.167 2.534 0.367 0.100 0.133 0.400 0.583 0.667 1 0.583 0.917 0.983 1.217 1.250 0.950 0.133 -0.133 -0.100 -0.833 -0.800 -2.500 -1.384 -3.200 -2.917 -6.401 -3.317 -6.884 l-0.333 -0.400 -0.333 0.483 c-0.750 1.050 -4.284 8.984 -4.134 9.251 0.167 0.250 0.400 0.167 0.833 -0.250z m-115.364 -0.167 c1.400 -0.333 1.817 -0.800 1.900 -2.150 0.067 -1.033 0.067 -1.050 -0.567 -1.600 l-0.617 -0.550 0.433 -0.900 c0.250 -0.500 0.450 -1.150 0.450 -1.434 0 -0.567 -0.617 -1.500 -1.217 -1.834 -0.400 -0.217 -4.784 -0.650 -5.284 -0.517 -0.217 0.050 -0.367 0.300 -0.450 0.700 -0.167 0.800 -0.167 8.018 0 8.418 0.117 0.300 0.267 0.317 2.250 0.200 1.167 -0.067 2.550 -0.217 3.100 -0.333z m25.337 0.133 c0.050 -0.150 0.100 -1.550 0.117 -3.117 0.017 -1.584 0.067 -3.050 0.133 -3.250 0.100 -0.367 0.167 -0.317 0.933 0.667 3.100 3.900 4.151 5.167 4.617 5.551 0.483 0.400 0.533 0.417 0.683 0.150 0.217 -0.383 0.350 -7.468 0.167 -8.318 -0.150 -0.683 -0.600 -0.983 -0.767 -0.517 -0.050 0.133 -0.150 1.734 -0.217 3.550 -0.050 1.817 -0.117 3.317 -0.133 3.334 -0.017 0.017 -0.817 -1 -1.767 -2.250 -2.234 -2.900 -3.950 -4.701 -4.484 -4.701 l-0.400 0 0.100 4.367 c0.083 3.934 0.117 4.384 0.383 4.584 0.383 0.283 0.517 0.267 0.633 -0.050z m14.552 -0.167 c1.150 -0.317 2.184 -1.133 2.700 -2.134 0.800 -1.567 0.450 -4.034 -0.767 -5.301 -0.683 -0.717 -2.134 -1.250 -3.884 -1.450 -0.867 -0.100 -1.850 -0.117 -2.167 -0.050 l-0.583 0.133 0 4.484 0 4.501 0.750 0.117 c1.017 0.133 2.900 0 3.950 -0.300z m38.105 -0.017 c0.567 -0.283 1.384 -1.384 1.634 -2.200 0.100 -0.333 0.217 -1.934 0.267 -3.550 l0.083 -2.967 -0.650 0 -0.667 0 0.017 2.800 c0.017 3.300 -0.150 4.117 -1.033 4.884 -0.550 0.483 -0.650 0.517 -1.634 0.450 -2.150 -0.133 -2.550 -0.950 -2.567 -5.251 l0 -2.884 -0.683 0 -0.683 0 0.117 2.884 c0.133 3.517 0.317 4.284 1.300 5.251 0.400 0.400 0.950 0.783 1.217 0.867 0.633 0.200 2.684 0.033 3.284 -0.283z m7.951 0.200 c0.133 -0.150 0.250 -1.484 0.350 -3.950 0.067 -2.050 0.133 -3.767 0.150 -3.834 0 -0.083 0.400 -0.133 0.883 -0.133 1.117 0 2.117 -0.283 2.117 -0.583 0 -0.383 -0.533 -0.433 -4.084 -0.383 -3.200 0.050 -3.334 0.067 -3.334 0.383 0 0.300 0.167 0.350 1.550 0.483 l1.534 0.150 0 4.051 c0 3.867 0.017 4.067 0.317 4.067 0.167 0 0.400 -0.117 0.517 -0.250z m11.618 -0.183 c0.817 -0.300 1.934 -1.434 2.400 -2.450 0.950 -2.100 -0.150 -4.817 -2.384 -5.934 -3.150 -1.584 -6.617 0.517 -6.634 4.001 0 1.834 0.667 3.217 2 4.084 1.067 0.717 3.084 0.833 4.617 0.300z m30.837 0.233 c0.067 -0.117 0.167 -1.934 0.217 -4.051 l0.083 -3.834 1.400 -0.117 c1.450 -0.117 1.800 -0.267 1.634 -0.700 -0.100 -0.233 -0.583 -0.267 -3.617 -0.267 -3.017 0 -3.517 0.033 -3.617 0.250 -0.133 0.383 -0.017 0.433 1.384 0.600 0.717 0.083 1.350 0.200 1.417 0.267 0.067 0.067 0.150 1.750 0.183 3.717 0.033 2.517 0.117 3.700 0.267 3.967 0.233 0.417 0.450 0.467 0.650 0.167z m12.018 0.100 c0.450 -0.133 0.483 -0.650 0.050 -0.900 -0.183 -0.100 -1.450 -0.167 -2.917 -0.167 l-2.600 0 0 -1.500 0 -1.500 2.134 -0.017 c2.434 -0.033 3.100 -0.133 3.167 -0.500 0.067 -0.400 -0.267 -0.467 -2.900 -0.600 l-2.400 -0.100 0 -1.384 0 -1.367 2.667 -0.067 c2.767 -0.050 3.350 -0.200 2.834 -0.700 -0.183 -0.167 -1.033 -0.267 -3.267 -0.350 l-3.017 -0.117 -0.100 0.883 c-0.067 0.500 -0.117 2.600 -0.117 4.701 l0 3.784 3.050 0 c1.667 0 3.200 -0.050 3.417 -0.100z m19.436 -0.117 c0.250 -0.183 0.317 -0.633 0.417 -3.417 0.067 -1.767 0.167 -3.234 0.217 -3.284 0.033 -0.050 1.283 1.450 2.767 3.317 1.484 1.867 2.834 3.450 2.984 3.500 0.150 0.067 0.333 0.017 0.417 -0.100 0.150 -0.250 0.150 -7.801 -0.017 -8.551 -0.133 -0.617 -0.600 -0.750 -0.750 -0.217 -0.050 0.217 -0.100 1.434 -0.117 2.717 0 1.283 -0.067 2.700 -0.117 3.134 l-0.117 0.817 -2.100 -2.650 c-2.300 -2.867 -3.650 -4.384 -3.934 -4.384 -0.317 0 -0.383 0.700 -0.383 5.051 0 4.517 0.017 4.601 0.733 4.067z m14.769 0.100 c0.783 -0.150 2.084 -1.450 2.317 -2.300 0.100 -0.367 0.183 -2.034 0.183 -3.700 l0 -3.050 -0.567 0 -0.567 0 -0.067 3.300 c-0.050 2.950 -0.083 3.350 -0.400 3.867 -0.417 0.733 -0.933 1 -1.950 1 -1.083 0 -2.067 -0.517 -2.384 -1.250 -0.150 -0.383 -0.283 -1.634 -0.367 -3.784 -0.100 -2.667 -0.167 -3.217 -0.367 -3.250 -0.683 -0.133 -0.750 0.133 -0.733 3.234 0 1.750 0.083 3.250 0.200 3.650 0.300 1.050 1.283 2.050 2.200 2.217 0.967 0.183 1.817 0.217 2.500 0.067z m6.234 -0.150 c0.050 -0.150 0.100 -0.933 0.100 -1.750 l0 -1.484 1.384 0 1.400 0 1.150 1.550 c1.117 1.500 1.934 2.150 2.250 1.834 0.100 -0.100 -0.117 -0.567 -0.567 -1.233 -0.400 -0.583 -0.867 -1.317 -1.033 -1.634 l-0.283 -0.567 0.767 -0.650 c1.300 -1.117 1.584 -2.184 0.950 -3.434 -0.683 -1.317 -1.300 -1.534 -4.551 -1.534 l-2.500 0 0.067 4.384 c0.017 2.400 0.117 4.467 0.183 4.584 0.183 0.283 0.567 0.250 0.683 -0.067z m11.935 -0.167 c0.100 -0.233 0.167 -1.667 0.167 -3.200 0 -1.534 0.050 -3.167 0.100 -3.634 l0.100 -0.850 1.250 -0.117 c0.667 -0.067 1.334 -0.150 1.467 -0.217 0.383 -0.133 0.300 -0.667 -0.117 -0.783 -0.467 -0.117 -3.184 -0.100 -5.301 0.050 -1.450 0.083 -1.584 0.133 -1.634 0.467 -0.050 0.367 -0.100 0.367 2.534 0.583 l0.483 0.050 -0.033 1.917 c-0.017 2.150 0.217 5.701 0.383 5.984 0.200 0.300 0.433 0.217 0.600 -0.250z m10.401 0.283 c0.950 -0.233 1.884 -1.217 2.217 -2.350 0.300 -1 0.400 -4.884 0.167 -6.034 -0.117 -0.517 -0.200 -0.633 -0.533 -0.633 -0.533 0 -0.550 0.067 -0.650 3.900 -0.067 2.167 -0.167 3.217 -0.300 3.400 -0.350 0.417 -1.500 0.867 -2.217 0.867 -1.033 0 -2.017 -0.533 -2.234 -1.200 -0.100 -0.300 -0.250 -1.900 -0.333 -3.567 -0.100 -1.667 -0.217 -3.150 -0.283 -3.300 -0.150 -0.383 -0.517 -0.333 -0.750 0.100 -0.233 0.433 -0.100 5.484 0.167 6.534 0.467 1.900 2.400 2.817 4.751 2.284z m6.134 -0.617 c0.067 -0.350 0.117 -1.117 0.117 -1.684 l0.017 -1.050 1.400 0 1.384 0 0.633 0.967 c1.183 1.800 1.734 2.367 2.267 2.367 0.267 0 0.483 -0.050 0.483 -0.100 0 -0.050 -0.450 -0.733 -1 -1.517 -0.550 -0.800 -1 -1.534 -1 -1.650 0 -0.133 0.217 -0.333 0.483 -0.467 1.233 -0.650 1.800 -1.967 1.417 -3.267 -0.500 -1.667 -1.434 -2.050 -5.151 -2.067 l-1.834 -0.017 -0.133 1.750 c-0.200 2.434 -0.050 6.918 0.217 7.251 0.333 0.400 0.567 0.217 0.700 -0.517z m15.135 0.617 c0.500 -0.133 0.633 -0.600 0.217 -0.767 -0.167 -0.067 -1.484 -0.167 -2.917 -0.200 l-2.634 -0.100 0 -1.467 0 -1.484 2.067 0 c2.450 0 3.134 -0.100 3.067 -0.467 -0.067 -0.350 -0.783 -0.500 -3.167 -0.617 l-1.967 -0.117 0 -0.633 c0 -0.333 -0.050 -0.967 -0.100 -1.400 l-0.117 -0.767 1.650 -0.017 c2.400 -0.017 4.067 -0.200 4.234 -0.483 0.083 -0.133 0.100 -0.300 0.017 -0.383 -0.067 -0.067 -1.567 -0.167 -3.334 -0.233 -2.667 -0.083 -3.234 -0.067 -3.367 0.133 -0.167 0.267 -0.200 6.584 -0.050 8.134 l0.117 1.017 2.934 -0.017 c1.617 -0.017 3.117 -0.067 3.350 -0.133z m-171.788 -1.050 c0.050 -0.217 0.100 -0.733 0.100 -1.150 0 -0.767 0 -0.767 0.633 -0.883 0.333 -0.050 0.917 -0.100 1.283 -0.100 0.867 0 1.217 -0.217 0.933 -0.567 -0.133 -0.150 -0.667 -0.283 -1.500 -0.367 l-1.300 -0.100 -0.150 -1.200 c-0.133 -1.017 -0.200 -1.183 -0.483 -1.183 -0.300 0 -0.333 0.133 -0.383 1.183 l-0.050 1.183 -1.334 0.083 c-1.517 0.083 -1.884 0.283 -1.300 0.700 0.267 0.183 0.750 0.267 1.517 0.267 l1.133 0 0 0.817 c0 0.983 0.233 1.684 0.567 1.684 0.117 0 0.267 -0.167 0.333 -0.367z m97.512 -0.250 c0.050 -0.350 0.100 -0.867 0.100 -1.150 0 -0.450 0.067 -0.533 0.517 -0.633 0.283 -0.050 0.800 -0.100 1.133 -0.100 0.333 0 0.717 -0.083 0.850 -0.167 0.217 -0.150 0.217 -0.183 0 -0.333 -0.133 -0.083 -0.583 -0.200 -1 -0.250 -1.734 -0.233 -1.667 -0.183 -1.667 -1.083 0 -0.450 -0.083 -1.017 -0.167 -1.250 -0.283 -0.750 -0.583 -0.400 -0.683 0.817 -0.050 0.600 -0.183 1.200 -0.300 1.317 -0.100 0.117 -0.700 0.233 -1.317 0.283 -0.850 0.067 -1.117 0.150 -1.117 0.333 0 0.200 0.283 0.267 1.384 0.300 l1.367 0.050 0 0.983 c0 1.167 0.100 1.500 0.500 1.500 0.200 0 0.317 -0.183 0.400 -0.617z m35.904 -20.769 c3.100 -1.500 7.401 -10.118 9.768 -19.602 1.083 -4.301 1.450 -7.018 1.584 -11.685 l0.100 -3.917 2.667 -0.117 c2.934 -0.117 4.401 -0.400 6.884 -1.367 1.884 -0.733 3.617 -1.600 5.051 -2.550 0.633 -0.417 1.200 -0.717 1.267 -0.650 0.067 0.067 -0.233 1.517 -0.667 3.234 -1.050 4.167 -1.334 5.901 -1.350 8.284 -0.017 2.267 0.217 3.267 1.100 4.751 0.300 0.500 0.883 1.133 1.267 1.417 0.633 0.433 0.867 0.500 1.850 0.500 2.034 0 3.984 -1.250 7.134 -4.584 2.217 -2.350 4.267 -4.801 6.401 -7.651 l1.900 -2.534 0.083 2.734 0.083 2.734 0.650 1.267 c0.733 1.467 2.017 2.784 3.217 3.317 1.200 0.533 3.150 0.383 4.634 -0.350 2 -0.983 4.534 -3.934 6.651 -7.718 l0.600 -1.083 1.167 -0.117 c3.867 -0.350 6.634 -1.784 10.468 -5.351 0.850 -0.800 1.567 -1.434 1.600 -1.400 0.033 0.033 -0.417 1.167 -1 2.517 -1.700 3.934 -2.600 7.568 -2.300 9.268 0.150 0.867 0.800 1.950 1.517 2.484 0.500 0.383 0.767 0.467 1.550 0.467 0.767 -0.017 1.100 -0.100 1.784 -0.550 1.767 -1.133 4.934 -4.867 8.068 -9.501 1.017 -1.500 1.884 -2.684 1.934 -2.650 0.033 0.050 -0.167 1.083 -0.450 2.300 -0.817 3.450 -1.083 5.784 -0.833 7.401 0.250 1.684 0.967 3.250 1.784 3.867 0.850 0.650 2.467 0.750 3.634 0.200 2.067 -0.933 5.117 -4.867 7.634 -9.785 0.717 -1.400 1.367 -2.534 1.467 -2.534 0.083 0 0.483 0.167 0.867 0.367 0.467 0.233 1.117 0.383 1.984 0.433 2.450 0.150 4.151 -0.567 6.451 -2.734 1.484 -1.400 2.317 -2.634 2.134 -3.117 -0.200 -0.533 -0.650 -0.267 -2.450 1.450 -1.417 1.367 -2.117 1.884 -3.200 2.434 -1.300 0.650 -1.434 0.683 -2.384 0.583 -1.250 -0.133 -2.417 -0.667 -2.417 -1.100 0 -0.167 0.300 -1.067 0.667 -1.984 1.033 -2.600 1.684 -4.934 1.784 -6.451 l0.100 -1.367 -0.600 -0.600 c-2 -2 -4.567 1.233 -4.901 6.184 -0.083 1.334 -0.050 1.700 0.367 3.150 l0.467 1.650 -0.733 1.417 c-2.800 5.384 -6.351 10.168 -7.934 10.701 -0.650 0.217 -0.850 0.117 -1.150 -0.617 -0.717 -1.734 0.300 -7.068 2.834 -14.852 0.700 -2.134 1.267 -4.051 1.267 -4.267 0 -0.350 -0.133 -0.450 -0.967 -0.683 -0.533 -0.150 -1.133 -0.267 -1.334 -0.267 -0.450 0 -0.483 0.050 -4.867 6.584 -4.217 6.284 -5.101 7.518 -6.768 9.485 -2.900 3.400 -4.434 4.167 -4.134 2.100 0.350 -2.600 2.250 -7.334 5.601 -14.002 2.100 -4.184 2.584 -5.284 2.417 -5.451 -0.100 -0.117 -0.750 -0.283 -1.417 -0.383 -1.584 -0.217 -1.717 -0.133 -3.450 2.050 -2.667 3.350 -8.034 8.568 -9.951 9.668 -1.133 0.650 -3.700 1.450 -4.651 1.450 -0.983 0 -1 -0.067 -0.400 -1.850 0.233 -0.683 0.617 -2.150 0.850 -3.284 0.883 -4.367 0.350 -7.484 -1.434 -8.418 -0.467 -0.250 -0.767 -0.283 -1.584 -0.183 -0.550 0.067 -1.817 0.100 -2.817 0.083 -1.750 -0.033 -1.850 -0.017 -2.917 0.500 -1.584 0.767 -3.900 3.134 -5.601 5.734 -3.567 5.451 -4.517 6.851 -6.134 9.001 -2.717 3.634 -5.134 6.451 -7.684 9.018 -1.884 1.884 -2.567 2.450 -3.467 2.884 -1.350 0.667 -1.984 0.617 -2.434 -0.200 -0.400 -0.750 -0.367 -3.467 0.100 -5.967 0.583 -3.100 2.867 -10.518 3.834 -12.418 0.200 -0.383 1.050 -1.484 1.900 -2.434 1.900 -2.117 6.401 -7.684 8.334 -10.301 5.201 -7.018 10.068 -16.085 10.418 -19.436 0.150 -1.434 -0.700 -2.517 -2.267 -2.900 -1.117 -0.267 -2.300 0.083 -3.617 1.050 -4.284 3.150 -11.668 15.519 -16.819 28.204 -1.567 3.834 -2.284 5.117 -3.467 6.117 -2.767 2.317 -6.417 4.184 -9.201 4.717 -1.550 0.300 -6.084 0.483 -6.401 0.267 -0.200 -0.133 -0.133 -0.417 0.467 -1.717 1.600 -3.517 2.284 -4.517 5.617 -8.068 7.184 -7.684 11.268 -12.968 14.402 -18.702 1.717 -3.134 2.834 -6.367 2.834 -8.168 0 -0.667 -0.517 -1.267 -1.534 -1.767 -1.634 -0.817 -2.767 -0.433 -4.951 1.650 -3.600 3.450 -8.384 11.101 -15.319 24.503 -3.517 6.801 -3.417 6.651 -5.134 7.834 -3.334 2.300 -4.134 3.067 -3.500 3.300 0.367 0.150 1.183 -0.167 2.517 -0.983 0.650 -0.383 1.183 -0.683 1.217 -0.667 0.017 0.033 -1.083 2.434 -2.467 5.334 -6.801 14.352 -10.718 24.686 -11.101 29.337 -0.183 2.117 0.633 4.251 1.917 5.001 1.117 0.650 2.050 0.667 3.317 0.050z m-27.087 -27.487 c0.067 -1.384 0.117 -3.700 0.117 -5.134 l0 -2.617 1.967 -0.117 c1.067 -0.050 3.434 -0.150 5.251 -0.200 l3.284 -0.117 0 -2.117 0 -2.134 -5.251 -0.117 -5.251 -0.117 0 -5.234 0 -5.234 -2.334 0 -2.334 0 0 5.251 0 5.251 -5.367 0 -5.351 0 0.117 2.134 c0.083 1.584 0.167 2.167 0.350 2.300 0.167 0.133 2 0.233 5.251 0.317 l5.001 0.117 0 5.151 0 5.151 2.217 0 2.234 0 0.100 -2.534z m-230.862 0.200 c3.900 -0.233 5.484 -0.700 6.801 -2.017 2.134 -2.134 2.050 -5.801 -0.167 -7.868 -0.433 -0.400 -1.100 -0.917 -1.484 -1.133 -0.383 -0.217 -0.700 -0.433 -0.683 -0.483 0 -0.050 0.350 -0.300 0.783 -0.583 0.617 -0.383 0.917 -0.750 1.367 -1.650 0.533 -1.067 0.583 -1.267 0.583 -2.667 0 -1.317 -0.067 -1.634 -0.450 -2.367 -0.617 -1.167 -1.950 -2.334 -3.017 -2.650 -0.783 -0.233 -7.918 -0.567 -12.402 -0.583 l-1.217 0 0 6.217 c0 7.568 0.167 15.185 0.350 15.485 0.250 0.400 5.134 0.567 9.535 0.300z m38.438 0.017 c0.267 -0.167 -0.583 -1.434 -3.800 -5.751 -1.017 -1.367 -1.850 -2.534 -1.850 -2.600 0 -0.067 0.250 -0.217 0.550 -0.317 1.334 -0.483 2.650 -1.267 3.267 -1.934 2.484 -2.684 2.400 -6.701 -0.183 -9.251 -0.917 -0.900 -2.217 -1.600 -3.417 -1.834 -0.483 -0.083 -3.500 -0.200 -6.718 -0.267 l-5.834 -0.117 0 10.918 0 10.935 0.517 0.100 c0.733 0.133 2.284 0.133 2.384 -0.033 0.033 -0.067 0.133 -1.867 0.200 -4.001 l0.117 -3.867 0.850 0 c0.467 0 1.784 -0.050 2.934 -0.100 l2.084 -0.117 0.983 1.484 c1.100 1.667 3.867 5.601 4.401 6.234 0.300 0.367 0.500 0.433 1.734 0.517 0.750 0.050 1.417 0.100 1.467 0.117 0.050 0.017 0.183 -0.033 0.317 -0.117z m12.685 -0.017 c0.433 0 0.517 -0.150 1.484 -2.467 l1.033 -2.484 3.767 -0.100 c2.084 -0.067 4.784 -0.117 6.034 -0.117 l2.267 0 0.817 2.017 c0.983 2.434 1.367 3.034 2.017 3.167 0.783 0.167 2.217 0.167 2.334 0 0.117 -0.200 -4.851 -11.718 -8.718 -20.186 l-0.800 -1.750 -1.334 0.017 c-0.733 0 -1.484 0.100 -1.667 0.200 -0.233 0.117 -1.367 2.500 -3.634 7.618 -1.817 4.101 -3.967 8.918 -4.767 10.718 -0.817 1.800 -1.434 3.334 -1.384 3.417 0.050 0.083 0.533 0.117 1.100 0.050 0.550 -0.050 1.200 -0.100 1.450 -0.100z m33.704 -8.468 l0.050 -8.634 2.917 3.750 c6.401 8.234 9.118 11.635 9.951 12.502 0.867 0.900 0.867 0.900 1.717 0.817 0.467 -0.050 0.933 -0.167 1.017 -0.250 0.200 -0.200 0.400 -21.053 0.200 -21.336 -0.067 -0.100 -0.750 -0.233 -1.517 -0.300 l-1.367 -0.133 0 2.500 c0 1.367 -0.050 5.117 -0.117 8.301 l-0.100 5.817 -0.483 -0.583 c-0.267 -0.317 -2.150 -2.700 -4.184 -5.317 -6.834 -8.801 -8.068 -10.285 -8.634 -10.485 -0.300 -0.100 -0.983 -0.183 -1.534 -0.183 l-1 0 0.100 9.385 c0.067 5.151 0.167 10.135 0.217 11.085 l0.117 1.700 1.300 0 1.317 0 0.033 -8.634z m38.888 8.284 c2.084 -0.200 3.167 -0.500 4.751 -1.334 1.650 -0.850 2.650 -1.734 3.600 -3.167 1.900 -2.867 2.367 -6.784 1.167 -10.085 -1.183 -3.234 -3.984 -5.784 -7.351 -6.651 -1.350 -0.350 -10.451 -0.717 -11.118 -0.450 l-0.467 0.200 0.017 8.034 c0.017 4.434 0.083 9.284 0.133 10.801 0.100 2.734 0.100 2.734 0.517 2.867 0.517 0.150 6.484 0.017 8.751 -0.217z m33.054 0.233 l6.034 -0.100 0 -1.300 0 -1.283 -0.867 -0.133 c-0.483 -0.083 -3.534 -0.117 -6.751 -0.100 l-5.884 0.050 0 -3.050 c0 -1.684 -0.050 -3.200 -0.100 -3.400 -0.100 -0.383 -0.317 -0.383 8.901 -0.667 l3.367 -0.117 0 -1.217 0 -1.233 -6.067 0 c-3.350 0 -6.101 -0.050 -6.134 -0.117 -0.033 -0.083 -0.033 -1.534 0 -3.234 l0.050 -3.100 3.450 0.017 c1.900 0 4.934 -0.067 6.751 -0.133 l3.284 -0.133 0 -1.400 0 -1.400 -8.334 0 -8.334 0 0.083 6.634 c0.050 3.634 0.133 7.034 0.167 7.534 0.033 0.500 0.067 2.517 0.083 4.467 l0 3.534 2.134 0 c1.183 0 4.851 -0.050 8.168 -0.117z m24.436 -0.067 c4.484 -0.200 5.567 -0.400 7.701 -1.434 2.517 -1.217 4.567 -3.767 5.317 -6.634 0.333 -1.317 0.333 -4.517 0 -5.834 -0.683 -2.600 -3.034 -5.467 -5.417 -6.634 -1.784 -0.867 -2.900 -1.117 -5.917 -1.300 -2.850 -0.200 -7.368 -0.150 -7.701 0.067 -0.167 0.100 -0.217 2.167 -0.217 9.418 0 5.101 0.050 10.018 0.117 10.918 l0.100 1.617 1.017 0 c0.567 0 2.800 -0.083 5.001 -0.183z"/>
  <path d="M149.235 150.235 c-0.350 -0.067 -0.383 -0.167 -0.383 -1.267 0 -0.667 0.050 -1.484 0.117 -1.850 l0.100 -0.650 1.534 0.100 c2.384 0.133 3.250 0.667 3.250 2 0 0.817 -0.683 1.517 -1.617 1.684 -0.683 0.100 -2.400 0.100 -3 -0.017z"/>
  <path d="M159.170 151.152 c0.417 -1.067 1.717 -3.900 1.834 -4.017 0.067 -0.067 0.317 0.233 0.567 0.683 0.400 0.733 1.617 3.467 1.617 3.634 0 0.033 -0.933 0.067 -2.084 0.067 l-2.084 0 0.150 -0.367z"/>
  <path d="M207.193 151.452 c0 -0.183 1.550 -3.717 1.767 -4.067 l0.267 -0.400 0.233 0.350 c0.217 0.300 1.900 3.950 1.900 4.117 0 0.033 -0.933 0.067 -2.084 0.067 -1.150 0 -2.084 -0.033 -2.084 -0.067z"/>
  <path d="M260.533 151.286 c0 -0.133 0.283 -0.917 0.650 -1.717 0.967 -2.217 1.050 -2.384 1.267 -2.384 0.217 0 0.317 0.200 1.283 2.417 0.350 0.817 0.600 1.584 0.567 1.700 -0.133 0.333 -3.767 0.300 -3.767 -0.017z"/>
  <path d="M139.134 153.086 c-0.067 -0.367 -0.117 -1.050 -0.117 -1.517 l0 -0.883 1.900 0 c1.033 0 2.117 0.083 2.417 0.183 0.600 0.217 1.017 0.883 1.017 1.634 0 0.850 -0.533 1.067 -2.984 1.150 l-2.134 0.083 -0.100 -0.650z"/>
  <path d="M139.117 149.152 c-0.150 -0.583 -0.117 -1.567 0.067 -2.034 0.150 -0.433 0.183 -0.433 1.967 -0.433 2.034 0 2.450 0.167 2.617 1.050 0.117 0.567 -0.133 1.450 -0.467 1.650 -0.117 0.067 -1.067 0.133 -2.134 0.133 -1.884 0 -1.950 -0.017 -2.050 -0.367z"/>
  <path d="M179.672 153.486 c-0.217 -0.400 -0.100 -5.184 0.150 -6.301 l0.133 -0.583 1.334 0.017 c1.550 0 2.400 0.367 3.200 1.334 1.283 1.550 0.983 4.117 -0.600 5.134 -0.650 0.433 -2.100 0.767 -3.300 0.767 -0.567 0 -0.767 -0.083 -0.917 -0.367z"/>
  <path d="M237.613 153.536 c-2.034 -0.933 -2.767 -3.317 -1.667 -5.334 1.133 -2.050 3.367 -2.400 5.167 -0.817 1.083 0.950 1.484 1.800 1.367 2.900 -0.267 2.634 -2.700 4.251 -4.867 3.250z"/>
  <path d="M324.841 150.235 c-0.417 -0.100 -0.517 -0.667 -0.350 -2.167 l0.133 -1.300 1.884 -0.050 1.900 -0.050 0.650 0.650 c0.700 0.717 0.783 1.117 0.400 1.867 -0.450 0.867 -1.183 1.167 -2.850 1.150 -0.817 -0.017 -1.617 -0.050 -1.767 -0.100z"/>
  <path d="M353.411 150.235 l-0.550 -0.067 0.050 -1.700 0.050 -1.700 1.934 -0.050 1.950 -0.050 0.517 0.517 c0.717 0.717 0.733 1.750 0.033 2.534 -0.450 0.517 -0.517 0.533 -1.950 0.567 -0.817 0.017 -1.734 0 -2.034 -0.050z"/>
  <path d="M328.074 131.150 c-0.267 -0.267 -0.250 -1.967 0.050 -3.684 0.633 -3.617 3.367 -11.151 7.168 -19.702 3.600 -8.068 4.051 -9.001 4.334 -8.718 0.133 0.133 -0.167 3.934 -0.517 6.551 -0.567 4.167 -2.117 10.301 -3.650 14.418 -1.850 4.967 -4.101 8.934 -6.067 10.718 -0.733 0.650 -1 0.733 -1.317 0.417z"/>
  <path d="M379.164 104.363 c-0.333 -0.367 -0.683 -0.983 -0.800 -1.384 -0.267 -1.017 -0.083 -4.067 0.367 -5.784 0.683 -2.700 2.967 -7.534 4.467 -9.518 1 -1.317 2.634 -2.934 2.784 -2.784 0.067 0.067 0.033 0.400 -0.083 0.750 -0.300 0.900 -0.433 4.751 -0.200 5.884 0.283 1.367 1.017 2.784 1.984 3.834 0.483 0.517 0.867 1.083 0.867 1.250 0 0.350 -1.434 2.934 -2.300 4.151 -1.367 1.900 -3.067 3.500 -4.267 4.001 -0.317 0.133 -0.950 0.250 -1.417 0.250 -0.733 0 -0.867 -0.067 -1.400 -0.650z"/>
  <path d="M388.415 93.778 c-1.017 -1.417 -1.250 -2.184 -1.250 -4.017 0.017 -2.650 0.950 -5.467 2.084 -6.301 0.383 -0.283 0.517 -0.300 0.950 -0.133 0.550 0.233 0.917 0.967 1.100 2.184 0.183 1.317 -0.833 6.784 -1.567 8.334 -0.383 0.817 -0.700 0.800 -1.317 -0.067z"/>
  <path d="M428.120 89.628 c-0.167 -0.450 0.033 -2.867 0.350 -4.034 0.567 -2.117 1.400 -3.334 1.950 -2.784 0.300 0.300 -1.250 5.984 -1.850 6.718 -0.300 0.367 -0.333 0.383 -0.450 0.100z"/>
  <path d="M364.046 85.877 c0 -0.117 0.617 -1.534 1.367 -3.167 4.667 -10.068 9.234 -18.252 12.268 -22.003 1.617 -2 2.767 -3.034 3.334 -3.034 0.400 0 0.400 0.033 0.317 0.750 -0.600 4.317 -6.434 14.218 -13.968 23.670 -2.734 3.434 -3.317 4.101 -3.317 3.784z"/>
  <path d="M346.460 84.344 c0.283 -0.900 8.884 -15.952 10.468 -18.336 2.967 -4.434 5.184 -6.951 5.801 -6.567 0.767 0.467 -1.534 6.001 -4.351 10.485 -2.734 4.334 -6.784 9.501 -10.651 13.618 -1.083 1.167 -1.450 1.400 -1.267 0.800z"/>
  <path d="M64.875 99.162 l0.050 -3.567 3.917 0.017 c5.817 0.033 6.868 0.300 7.718 1.917 0.400 0.750 0.467 1.033 0.400 1.750 -0.167 1.584 -1.083 2.750 -2.400 3.050 -0.433 0.083 -2.800 0.217 -5.267 0.283 l-4.451 0.117 0.033 -3.567z"/>
  <path d="M64.841 89.611 l0 -3.217 0.767 -0.117 c1.017 -0.133 4.167 -0.117 6.584 0.050 2.317 0.150 2.917 0.433 3.500 1.617 0.700 1.467 0.133 3.367 -1.283 4.234 -0.550 0.350 -0.917 0.400 -3.467 0.517 -1.567 0.067 -3.584 0.133 -4.467 0.133 l-1.634 0.017 0 -3.234z"/>
  <path d="M95.179 90.428 l0 -4.301 4.301 0.117 c2.350 0.067 4.567 0.200 4.901 0.283 2.100 0.533 3.084 3.584 1.884 5.801 -0.950 1.734 -2.217 2.117 -7.618 2.300 l-3.467 0.100 0 -4.301z"/>
  <path d="M126.516 97.379 c0 -0.083 0.567 -1.350 1.250 -2.834 1.133 -2.434 2.767 -6.184 3.250 -7.451 l0.200 -0.500 0.333 0.667 c0.200 0.367 0.967 2.134 1.734 3.917 0.750 1.784 1.634 3.884 1.967 4.634 0.333 0.767 0.600 1.467 0.600 1.550 0 0.083 -1.967 0.150 -4.667 0.150 -2.567 0 -4.667 -0.067 -4.667 -0.133z"/>
  <path d="M188.890 94.628 c0.033 -4.451 0.117 -8.151 0.183 -8.234 0.083 -0.067 1.434 -0.133 3 -0.117 3.300 0.017 4.951 0.300 6.501 1.117 3.550 1.867 4.867 7.184 2.800 11.251 -0.583 1.133 -1.250 1.800 -2.600 2.617 -1.767 1.050 -2.750 1.250 -6.551 1.367 l-3.400 0.100 0.067 -8.101z"/>
  <path d="M249.731 94.578 l0.050 -8.151 2.417 -0.050 c3.150 -0.067 5.267 0.183 6.451 0.750 1.300 0.617 2.867 2.200 3.567 3.634 l0.567 1.167 0 2.500 c0 2.467 0 2.517 -0.533 3.634 -0.983 2.067 -2.800 3.567 -5.134 4.201 -0.683 0.183 -2.034 0.300 -4.217 0.367 l-3.200 0.100 0.033 -8.151z"/>
 </g>
</svg>