<?xml version="1.0" encoding="UTF-8"?>
<svg version="1.1" viewBox="0 0 2000 2000" width="500" height="500" xmlns="http://www.w3.org/2000/svg">
<path transform="translate(0)" d="m0 0h2e3v2e3h-2e3z" fill="#F8F8F8"/>
<path transform="translate(2e3 8)" d="m0 0h1v74l-7 10-9 16-9 15-15 26-27 45-14 23-13 21-14 23-14 22-24 38-15 23-34 51-26 38-12 17-13 19-9 12-12 17-14 19-11 15-24 32-13 17-10 13-11 14-13 16-7 9-13 16-11 13-13 16-12 14-9 11-11 12-9 11-13 14-7 8-11 12-7 8-13 16-10 13-13 16-11 14-14 17-8 10-9 10-7 8-9 10-7 8-9 10-32 32-14 11-11 9-14 10-16 11-24 16-21 12-15 10-19 12-15 10-18 11-22 13-16 10-18 11-18 10-23 11-20 9-30 12-19 7-32 9-31 6-32 4-53 3-38 3-1 1-2 62-3 65-3 46-5 46-7 44-10 49-10 42-11 41-12 40-18 55-12 33-13 33-9 21-15 34-19 39-15 28-8 13-6 10-12 19-21 28-9 10-17 17-15 11-16 8-15 5-6 1h-14l-15-4-17-9-13-12-7-8-8-14-3-11-1-8-2-57 1-32 4-33 6-26 11-37 9-29 9-27 13-36 6-17 17-44 11-28 13-32 12-29 10-24 13-30 9-21 11-25 10-23 12-27 13-28 8-18 14-30 11-24 13-27 10-23 8-16 11-23 12-26 15-33 4-12-14 7-13 8-15 9-17 10-17 11-18 12-23 15-48 28-62 31-27 11-30 11-29 9-30 8-33 6-24 3-35 3h-44l-33-4-31-6-30-8-30-10-23-10-25-12-21-12-19-12-16-11-19-14-17-14-11-10-11-9-7-6 5-5 7-8 5 1 12 11 11 9 13 11 20 15 16 11 19 12 18 10 15 8 29 13 30 11 30 8 26 5 18 3 24 2h29l34-2 36-4 32-6 30-8 40-13 30-12 38-18 20-10 23-13 26-15 24-15 17-12 11-9 11-10 11-9 14-11 16-12 15-11 16-11 16-12 10-9 7-8 9-13 9-15 13-24 10-18 8-16 14-27 10-19 10-20 6-10 18-36 12-22 13-25 12-22 11-21 18-33 12-21 18-33 9-16 10-17 12-21 9-15 14-23 6-11 9-14 9-15 7-11 11-17 20-30 11-16 9-13 8-11 12-17 14-17 10-13 9-10 9-11 15-16 15-15 22-18 16-11 14-7 16-4 13 1 21 7 15 9 12 11 7 9 4 7v15l-6 30-9 32-11 31-12 28-16 34-15 28-13 23-8 13-13 22-9 14-26 39-24 34-14 19-9 12-10 13-11 14-13 17-9 10-11 14-12 14-14 17-9 10-11 13-7 8-18 20-12 14-11 12-7 8-10 11-7 8-7 7-7 8-8 8-7 8-13 15-14 14-7 8-9 10-9 11-11 13-9 12-11 16-9 14-12 21-11 22-13 28-8 19-4 13v8h48l42-2 40-4 24-4 23-6 23-8 21-9 30-14 27-15 22-14 14-10 16-10 32-22 17-12 15-9 8-5 6-3 13-7 8-7 18-13 16-12 17-12 14-11 14-12 13-12 29-29 7-8 11-12 8-10 11-14 9-12 11-14 12-15 14-19 9-12 16-21 11-13 10-11 7-8 22-26 8-10 12-14 11-14 13-16 22-28 20-26 12-16 14-19 11-15 8-11 13-18 14-20 12-17 16-23 12-18 14-20 15-23 17-26 13-20 9-14 12-19 14-22 16-26 15-24 45-75 10-17 13-22 14-24 13-23 13-22z" fill="#4CC0D1"/>
<path transform="translate(819,1185)" d="m0 0 4 1v11l-4 57-4 40-7 56-8 47-10 46-10 43-9 35-10 36-14 47-13 38-6 17-12 31-9 21-11 26-17 35-14 27-14 24-14 22-10 14-15 20h-2l-2 4-15 16-14 11-7 3h-7l-5-6-3-14v-13l1-19 4-33 7-33 12-44 12-38 12-36 16-44 12-32 16-41 12-30 12-29 9-22 4-9 8-19 17-40 14-31 10-23 11-24 14-32 16-35 15-33 12-25 10-17z" fill="#F8F8F8"/>
<path transform="translate(1331,296)" d="m0 0h9l3 3 1 8-3 17-5 17-9 26-10 24-9 20-7 15-8 17-10 18-7 14-11 20-6 10-10 17-11 17-7 11-28 42-13 18-10 14-14 19-13 17-12 16-13 17-10 12-8 10-11 14-11 13-14 17-8 9-9 11-11 12-7 8-9 10-12 13-7 8-9 9-7 8-12 12-7 5-2-1v-7l14-27 10-19 8-14 9-17 9-16 10-18 12-21 13-24 9-15 15-27 12-20 15-27 6-9 6-12 13-22 16-27 12-21 9-15 20-34 12-19 11-17 10-14 10-15 13-18 11-15 12-16 13-16 9-11 26-26 9-6z" fill="#F8F8F8"/>
<path transform="translate(2e3 8)" d="m0 0h1v74l-7 10-9 16-9 15-15 26-27 45-14 23-13 21-14 23-14 22-24 38-15 23-34 51-26 38-5 5-10 14-13 18-7 10-2 3-4-2 1-5 5-10 3-5 2-9 1-6-5-1-13 4-8 7-4 1 2-5 14-20 8-12 3-7 9-13 13-19 22-33 17-26 13-20 9-14 12-19 14-22 16-26 15-24 45-75 10-17 13-22 14-24 13-23 13-22z" fill="#1888B3"/>
<path transform="translate(19,1081)" d="m0 0 5 1 12 11 11 9 13 11 20 15 16 11 19 12 18 10 15 8 29 13 30 11 10 3v2l10 2 28 6 31 5 12 1h44l32-2 28-3 16-3 14-3 25-6 28-8 37-13h2l-1 3-4 2-5-1-2 4-6 2-4 1-3 2-7 1-4 3h-6l-2 2h-3v2l-8 2h-5v2l-10 2-8 3-5-1v2l-10 3-6 1-6 2-1 2 14-1 10-2 7-1 15-3 6-2 5-1 11-3 10-2 9-4 5 1-3 2-24 8-35 10-26 6-31 5-42 4-16 1h-23l-26-2-33-5-14-3-13-2-31-9-27-10-38-18-21-12-19-12-16-11-19-14-17-14-11-10-11-9-7-6 5-5z" fill="#35AACB"/>
<path transform="translate(1744,418)" d="m0 0 1 2-10 15-7 10-7 11 6-3 5-5 7-1 1-2 6-1 5 2-2 10-2 6-7 14-1 5 3 1 7-11 9-12 10-14 6-8v3l-9 13-12 17-10 14-13 18-14 19-8 11-24 32-13 17-5 6-4 4h-2l-2 4-2-1 2-5 5-10 4-6 4-7 2-3h2l3-10 3-6-1-5-3-1v-2l-9 3-1 2-6 2v2l-9 5-3 5-2 2-3-1 8-11 12-16 10-14 13-18 4-8 10-13 13-19 11-15 16-23z" fill="#35AACB"/>
<path transform="translate(517,1192)" d="m0 0h2v2l-18 7-28 9-29 8-29 6-26 4-45 4h-44l-33-4-31-6-4-2 10 1 21 4 31 4 16 1h23l50-4 27-4 25-5 24-6 28-8 28-10z" fill="#4DC1D2"/>
<path transform="translate(519,1173)" d="m0 0m-3 1h3v2l-20 7-7 3-25 7-30 8-12 3-33 5-30 3-20 1h-44l-26-3-32-6-23-6 4-1 30 7 30 5 24 2h29l34-2 36-4 32-6 30-8 40-13z" fill="#4DC1D2"/>
<path transform="translate(1688,497)" d="m0 0v3l-13 18-8 11-12 16-8 11h-2l2-4 14-19 10-13 10-14z" fill="#4DC1D2"/>
<path transform="translate(1532,740)" d="m0 0h3l-2 5-4 4-1 3-6 5-3-1 1-5 4-5z" fill="#34A9CB"/>
<path transform="translate(1744,418)" d="m0 0 1 2-10 15-7 10-8 11-3 2 2-5 13-18 11-16z" fill="#41B6CE"/>
<path transform="translate(551,1175)" d="m0 0 5 1-4 2-7 4-20 8-2-1 6-4 11-4 5-3z" fill="#34A9CB"/>
<path transform="translate(551,1177)" d="m0 0 3 1v2l-24 10-5 1 3-3 20-8 3-1z" fill="#4DC1D2"/>
<path transform="translate(1744,418)" d="m0 0 1 2-12 18h-2l2-5 8-11z" fill="#43B7CF"/>
</svg>
